<svg width="15" height="20" viewBox="0 0 10 13" fill="none" xmlns="http://www.w3.org/2000/svg">
<path d="M4.71321 12.7407C3.50513 12.7407 2.36243 12.5001 1.49555 12.0634C0.530457 11.5765 0 10.8956 0 10.1437C0 9.14633 0.932852 8.28512 2.49557 7.84033C2.60896 7.81064 2.72949 7.8266 2.83125 7.88478C2.93301 7.94297 3.0079 8.03874 3.03983 8.15153C3.07176 8.26432 3.05819 8.38514 3.00202 8.48803C2.94586 8.59092 2.85159 8.66769 2.73945 8.70184C1.61854 9.02095 0.894344 9.58693 0.894344 10.1437C0.894344 10.9496 2.46213 11.8452 4.71202 11.8452C6.96191 11.8452 8.53059 10.9496 8.53059 10.1437C8.53059 9.58693 7.8064 9.02095 6.68549 8.70184C6.62892 8.68575 6.57608 8.65867 6.52997 8.62216C6.48387 8.58564 6.44541 8.54041 6.41679 8.48903C6.35899 8.38527 6.34477 8.26279 6.37727 8.14855C6.40977 8.03431 6.48632 7.93765 6.59009 7.87985C6.69385 7.82205 6.81632 7.80783 6.93057 7.84033C8.49328 8.28512 9.42613 9.14633 9.42613 10.1437C9.42613 10.8956 8.89508 11.5765 7.93058 12.0634C7.0637 12.5001 5.921 12.7407 4.71321 12.7407Z" fill="#333333"/>
<path d="M4.79977 0.739258C2.81202 0.739258 1.19971 2.33814 1.19971 4.30932C1.19971 6.98687 4.79977 10.9394 4.79977 10.9394C4.79977 10.9394 8.39983 6.98687 8.39983 4.30932C8.39983 2.33814 6.78752 0.739258 4.79977 0.739258ZM4.79977 5.58434C4.09004 5.58434 3.51403 5.01313 3.51403 4.30932C3.51403 3.60551 4.09004 3.0343 4.79977 3.0343C5.5095 3.0343 6.08551 3.60551 6.08551 4.30932C6.08551 5.01313 5.5095 5.58434 4.79977 5.58434Z" fill="#FAD53D"/>
</svg>
